<?xml version="1.0" encoding="UTF-8" standalone="no"?>
<svg
   version="1.1"
   width="1500px"
   height="250px"
   style="shape-rendering:geometricPrecision; text-rendering:geometricPrecision; image-rendering:optimizeQuality; fill-rule:evenodd; clip-rule:evenodd"
   id="svg32"
   sodipodi:docname="offersy_blue_new.svg"
   inkscape:version="1.3-dev (f3df6cc7, 2022-08-24)"
   inkscape:export-filename="offersy_gradient2.svg"
   inkscape:export-xdpi="96"
   inkscape:export-ydpi="96"
   xmlns:inkscape="http://www.inkscape.org/namespaces/inkscape"
   xmlns:sodipodi="http://sodipodi.sourceforge.net/DTD/sodipodi-0.dtd"
   xmlns="http://www.w3.org/2000/svg"
   xmlns:svg="http://www.w3.org/2000/svg">
  <defs
     id="defs32" />
  <sodipodi:namedview
     id="namedview32"
     pagecolor="#ffffff"
     bordercolor="#000000"
     borderopacity="0.25"
     inkscape:showpageshadow="2"
     inkscape:pageopacity="0.0"
     inkscape:pagecheckerboard="0"
     inkscape:deskcolor="#d1d1d1"
     showgrid="false"
     inkscape:zoom="0.38833333"
     inkscape:cx="229.18455"
     inkscape:cy="204.72103"
     inkscape:window-width="1904"
     inkscape:window-height="1161"
     inkscape:window-x="-1"
     inkscape:window-y="-15"
     inkscape:window-maximized="0"
     inkscape:current-layer="svg32" />
  <g
     id="g1">
    <path
       style="opacity:0.972"
       fill="#2202ff"
       d="M 49.5,7.5 C 85.8394,7.16678 122.173,7.50011 158.5,8.5C 112.833,54.8333 66.8333,100.833 20.5,146.5C 16.0313,143.531 12.8646,139.531 11,134.5C 8.87945,129.018 7.54612,123.351 7,117.5C 6.33333,93.5 6.33333,69.5 7,45.5C 9.06679,19.2653 23.2335,6.5986 49.5,7.5 Z"
       id="path1" />
  </g>
  <g
     id="g2">
    <path
       style="opacity:0.96"
       fill="#2202ff"
       d="M 279.5,7.5 C 323.168,7.33334 366.835,7.50001 410.5,8C 412.624,9.12173 414.457,10.6217 416,12.5C 416.667,20.1667 416.667,27.8333 416,35.5C 414.52,38.6626 412.02,40.496 408.5,41C 367.5,41.3333 326.5,41.6667 285.5,42C 275.599,46.6321 271.599,54.4654 273.5,65.5C 318.835,65.3333 364.168,65.5 409.5,66C 412.583,66.786 414.749,68.6193 416,71.5C 416.667,77.8333 416.667,84.1667 416,90.5C 414.457,92.3783 412.624,93.8783 410.5,95C 367.167,95.3333 323.833,95.6667 280.5,96C 277.337,97.4798 275.504,99.9798 275,103.5C 274.97,119.592 274.304,135.592 273,151.5C 271.2,153.317 269.034,154.484 266.5,155C 257.756,155.91 249.089,155.576 240.5,154C 237.732,152.238 236.232,149.738 236,146.5C 235.333,112.833 235.333,79.1667 236,45.5C 235.509,25.6569 245.009,13.8236 264.5,10C 269.661,9.26771 274.661,8.43438 279.5,7.5 Z"
       id="path2" />
  </g>
  <g
     id="g3">
    <path
       style="opacity:0.961"
       fill="#2202ff"
       d="M 490.5,7.5 C 534.168,7.33334 577.835,7.50001 621.5,8C 625,8.83333 627.167,11 628,14.5C 628.667,21.1667 628.667,27.8333 628,34.5C 626.301,38.205 623.467,40.3717 619.5,41C 578.833,41.3333 538.167,41.6667 497.5,42C 487.068,46.3605 483.068,54.1938 485.5,65.5C 530.501,65.3333 575.501,65.5 620.5,66C 623.913,67.0774 626.413,69.2441 628,72.5C 628.87,78.9172 628.536,85.2506 627,91.5C 625.421,93.0412 623.587,94.2078 621.5,95C 578.5,95.3333 535.5,95.6667 492.5,96C 490,97.1667 488.167,99 487,101.5C 486.971,117.925 486.304,134.258 485,150.5C 483.363,152.81 481.196,154.31 478.5,155C 470.833,155.667 463.167,155.667 455.5,155C 451.473,154.573 448.973,152.406 448,148.5C 447.03,109.795 447.364,71.1281 449,32.5C 452.636,20.9038 460.469,13.7371 472.5,11C 478.581,9.50261 484.581,8.33594 490.5,7.5 Z"
       id="path3" />
  </g>
  <g
     id="g4">
    <path
       style="opacity:0.963"
       fill="#2202ff"
       d="M 701.5,7.5 C 745.168,7.33334 788.835,7.50001 832.5,8C 834.848,8.34588 836.681,9.51255 838,11.5C 839.601,19.3953 839.934,27.3953 839,35.5C 837.52,38.6626 835.02,40.496 831.5,41C 790.5,41.3333 749.5,41.6667 708.5,42C 698.694,45.119 696.194,51.2857 701,60.5C 702.731,62.6166 704.898,64.1166 707.5,65C 749.167,65.3333 790.833,65.6667 832.5,66C 835.583,66.786 837.749,68.6193 839,71.5C 839.667,77.8333 839.667,84.1667 839,90.5C 837.833,91.6667 836.667,92.8333 835.5,94C 793.251,95.3226 750.917,95.9892 708.5,96C 701.446,97.5514 697.78,102.051 697.5,109.5C 698.159,117.715 702.492,122.215 710.5,123C 751.833,123.333 793.167,123.667 834.5,124C 836.333,125.167 837.833,126.667 839,128.5C 839.667,135.5 839.667,142.5 839,149.5C 837.52,152.663 835.02,154.496 831.5,155C 789.5,155.667 747.5,155.667 705.5,155C 693.285,155.114 681.952,152.114 671.5,146C 663.141,138.78 658.975,129.613 659,118.5C 658.333,93.1667 658.333,67.8333 659,42.5C 659.297,25.8704 667.464,15.3704 683.5,11C 689.617,9.70657 695.617,8.5399 701.5,7.5 Z"
       id="path4" />
  </g>
  <g
     id="g5">
    <path
       style="opacity:0.967"
       fill="#2202ff"
       d="M 877.5,7.5 C 919.501,7.33334 961.501,7.50001 1003.5,8C 1018.43,7.52654 1030.93,12.6932 1041,23.5C 1047.02,35.5955 1049.52,48.4288 1048.5,62C 1049.61,77.0033 1046.77,91.1699 1040,104.5C 1031.7,113.94 1021.2,118.774 1008.5,119C 1020,129.167 1031.5,139.333 1043,149.5C 1043.49,151.134 1043.66,152.801 1043.5,154.5C 1031.87,155.603 1020.2,155.769 1008.5,155C 1002.94,154.368 997.935,152.368 993.5,149C 983.368,140.537 973.535,131.704 964,122.5C 960.078,115.704 958.578,108.371 959.5,100.5C 959.386,95.3907 959.886,90.3907 961,85.5C 962.637,83.1898 964.804,81.6898 967.5,81C 976.167,80.6667 984.833,80.3333 993.5,80C 998.99,77.2037 1002.16,72.7037 1003,66.5C 1004.34,58.4939 1002.17,51.6606 996.5,46C 956.893,44.684 917.226,44.0174 877.5,44C 874.427,43.2614 872.26,41.4281 871,38.5C 870.333,30.1667 870.333,21.8333 871,13.5C 872.436,10.5581 874.603,8.55813 877.5,7.5 Z"
       id="path5" />
  </g>
  <g
     id="g6">
    <path
       style="opacity:0.965"
       fill="#2202ff"
       d="M 1139.5,7.5 C 1174.83,7.33335 1210.17,7.50001 1245.5,8C 1247.29,8.78451 1248.79,9.95118 1250,11.5C 1251.6,19.3953 1251.93,27.3953 1251,35.5C 1249.74,38.4281 1247.57,40.2614 1244.5,41C 1210.17,41.3333 1175.83,41.6667 1141.5,42C 1136.64,42.1891 1131.98,43.1891 1127.5,45C 1120.53,54.4121 1122.86,60.4121 1134.5,63C 1164.51,63.229 1194.51,63.8957 1224.5,65C 1250.15,67.4057 1261.82,81.5724 1259.5,107.5C 1261.96,133.131 1250.63,147.964 1225.5,152C 1210.21,153.663 1194.88,154.663 1179.5,155C 1150.17,155.667 1120.83,155.667 1091.5,155C 1089.15,154.654 1087.32,153.487 1086,151.5C 1084.4,143.605 1084.07,135.605 1085,127.5C 1086.26,124.572 1088.43,122.739 1091.5,122C 1129.5,121.667 1167.5,121.333 1205.5,121C 1214.57,118.367 1217.4,112.533 1214,103.5C 1211.66,100.246 1208.49,98.4123 1204.5,98C 1173.81,97.8901 1143.15,97.2235 1112.5,96C 1087.88,93.0169 1076.88,79.0169 1079.5,54C 1077.83,39.9861 1081.83,27.9861 1091.5,18C 1095.93,15.4491 1100.6,13.4491 1105.5,12C 1116.89,9.7932 1128.22,8.2932 1139.5,7.5 Z"
       id="path6" />
  </g>
  <g
     id="g7">
    <path
       style="opacity:0.966"
       fill="#2202ff"
       d="M 1292.5,7.5 C 1307.5,7.33342 1322.5,7.50008 1337.5,8C 1342.3,8.98375 1346.47,11.1504 1350,14.5C 1362.79,30.9568 1375.95,47.1235 1389.5,63C 1391.5,63.6667 1393.5,63.6667 1395.5,63C 1408.26,48.6264 1420.43,33.7931 1432,18.5C 1435.84,12.9826 1441.01,9.48262 1447.5,8C 1462.17,7.33333 1476.83,7.33333 1491.5,8C 1492.8,8.80399 1493.47,9.97065 1493.5,11.5C 1492.64,14.5273 1491.14,17.194 1489,19.5C 1466.33,45.5 1443.67,71.5 1421,97.5C 1419.06,101.048 1417.39,104.714 1416,108.5C 1415.95,122.568 1415.28,136.568 1414,150.5C 1412.36,152.81 1410.2,154.31 1407.5,155C 1397.5,155.667 1387.5,155.667 1377.5,155C 1374.8,154.31 1372.64,152.81 1371,150.5C 1369.7,136.594 1369.03,122.594 1369,108.5C 1368.2,105.756 1367.2,103.089 1366,100.5C 1341.71,71.8709 1317.04,43.5376 1292,15.5C 1289.89,12.5672 1290.06,9.90058 1292.5,7.5 Z"
       id="path7" />
  </g>
  <g
     id="g8">
    <path
       style="opacity:0.958"
       fill="#2202ff"
       d="M 189.5,15.5 C 195.273,18.4513 199.106,23.118 201,29.5C 203.232,36.3262 204.565,43.3262 205,50.5C 205.667,71.1667 205.667,91.8333 205,112.5C 205.228,126.5 200.395,138.333 190.5,148C 184.607,151.409 178.274,153.409 171.5,154C 150.017,155.057 128.517,155.557 107,155.5C 88.4681,155.618 69.9681,155.118 51.5,154C 62.1667,143.333 72.8333,132.667 83.5,122C 102.833,121.667 122.167,121.333 141.5,121C 153.442,120.387 160.276,114.221 162,102.5C 162.667,88.1667 162.667,73.8333 162,59.5C 161.373,55.4483 159.873,51.7817 157.5,48.5C 168.188,37.4793 178.855,26.4793 189.5,15.5 Z"
       id="path8" />
  </g>
  <g
     id="g9">
    <path
       style="opacity:0.951"
       fill="#2202ff"
       d="M 878.5,112.5 C 888.172,112.334 897.839,112.5 907.5,113C 910.034,113.516 912.2,114.683 914,116.5C 915.62,127.402 915.954,138.402 915,149.5C 914.215,151.286 913.049,152.786 911.5,154C 900.573,155.597 889.573,155.931 878.5,155C 875.966,154.484 873.8,153.317 872,151.5C 870.38,140.598 870.046,129.598 871,118.5C 872.707,115.41 875.207,113.41 878.5,112.5 Z"
       id="path9" />
  </g>
  <g
     aria-label="с е р в и с   д л я   п о и с к а   к л и е н т о в
"
     transform="scale(1.0163949,0.98386956)"
     id="text33"
     style="font-size:62.3388px;display:inline;fill:#2202ff;stroke-width:1.01639;fill-opacity:0.96470588">
    <path
       d="m 33.198298,233.52649 q -3.50047,1.6437 -6.026896,2.25248 -2.495987,0.63921 -4.991974,0.63921 -3.713542,0 -6.818306,-1.06536 -3.104764,-1.0958 -5.326802,-3.28739 -2.2220368,-2.1916 -3.4700303,-5.53988 -1.2175547,-3.34827 -1.2175547,-7.82279 0,-8.12717 4.5049523,-12.96695 4.5049517,-4.87022 12.3277407,-4.87022 2.95257,0 5.783385,0.82185 2.861253,0.82185 5.235485,2.00896 v 6.36172 H 32.86347 q -2.830814,-2.16115 -5.600751,-3.19608 -2.739498,-1.03492 -5.326802,-1.03492 -5.08329,0 -7.883666,3.40916 -2.769937,3.40915 -2.769937,9.46648 0,6.05734 2.769937,9.40561 2.769937,3.34828 7.883666,3.34828 1.795893,0 3.561348,-0.45659 1.795893,-0.45658 3.256958,-1.18711 1.156677,-0.57834 2.374232,-1.36975 1.247993,-0.82185 1.735015,-1.21755 h 0.334828 z"
       id="path50"
       style="fill:#2202ff;fill-opacity:0.96470588" />
    <path
       d="M 91.427848,219.25066 H 66.376661 q 0,3.13521 0.943605,5.479 0.943605,2.31335 2.587304,3.80486 1.582821,1.46106 3.74398,2.19159 2.191599,0.73054 4.809341,0.73054 3.470031,0 6.970501,-1.36975 3.530908,-1.40019 5.022412,-2.7395 h 0.304389 v 6.23997 q -2.891692,1.21755 -5.90514,2.0394 -3.013448,0.82185 -6.331284,0.82185 -8.462005,0 -13.210468,-4.56583 -4.748463,-4.59627 -4.748463,-13.02783 0,-8.34025 4.535391,-13.24091 4.56583,-4.90066 11.992913,-4.90066 6.879184,0 10.592726,4.01793 3.74398,4.01793 3.74398,11.41458 z m -5.570312,-4.38319 q -0.03044,-4.50496 -2.282915,-6.9705 -2.222038,-2.46555 -6.787868,-2.46555 -4.596268,0 -7.335766,2.70906 -2.709059,2.70906 -3.074326,6.72699 z"
       id="path51"
       style="fill:#2202ff;fill-opacity:0.96470588" />
    <path
       d="m 151.94031,218.24618 q 0,4.13969 -1.18711,7.57928 -1.18712,3.40915 -3.34828,5.78338 -2.00896,2.25248 -4.74846,3.50047 -2.70906,1.21756 -5.75295,1.21756 -2.64818,0 -4.80934,-0.57834 -2.13072,-0.57834 -4.35276,-1.7959 v 14.24539 h -5.7225 V 201.657 h 5.7225 v 3.56134 q 2.28292,-1.91764 5.11373,-3.19608 2.86126,-1.30887 6.08778,-1.30887 6.14865,0 9.5578,4.65715 3.43959,4.62671 3.43959,12.87564 z m -5.90514,0.15219 q 0,-6.14865 -2.10028,-9.19253 -2.10028,-3.04389 -6.45304,-3.04389 -2.46555,0 -4.96153,1.06536 -2.49599,1.06536 -4.77891,2.80038 v 19.2678 q 2.43511,1.0958 4.17013,1.4915 1.76545,0.39571 3.98749,0.39571 4.7789,0 7.45752,-3.22652 2.67862,-3.22652 2.67862,-9.55781 z"
       id="path52"
       style="fill:#2202ff;fill-opacity:0.96470588" />
    <path
       d="m 210.83952,225.36887 q 0,2.46555 -1.00448,4.3832 -0.97404,1.91765 -2.70906,3.19608 -1.94809,1.43063 -4.26144,2.06985 -2.28291,0.63921 -6.02689,0.63921 H 182.77489 V 201.657 h 13.14959 q 3.80486,0 5.72251,0.27395 1.94808,0.24351 3.65266,1.12624 1.91765,1.00448 2.80038,2.61774 0.91316,1.61326 0.91316,3.80486 0,2.52642 -1.43063,4.38319 -1.43062,1.85677 -3.6831,2.8917 v 0.30438 q 3.01345,0.73054 4.96154,2.83082 1.97852,2.06984 1.97852,5.47899 z m -7.70103,-15.00636 q 0,-1.0958 -0.48702,-1.97852 -0.45658,-0.88273 -1.43063,-1.36975 -1.27843,-0.63922 -2.89169,-0.7001 -1.58282,-0.0913 -3.92661,-0.0913 h -5.96602 v 9.31429 h 7.15313 q 2.25248,0 3.31784,-0.15219 1.0958,-0.18264 2.1916,-0.85229 1.15667,-0.73053 1.58282,-1.70458 0.45658,-1.00448 0.45658,-2.46555 z m 1.79589,15.0368 q 0,-1.67413 -0.5479,-2.70906 -0.5479,-1.06536 -2.40467,-1.94808 -1.15667,-0.5479 -2.49598,-0.63922 -1.33931,-0.12175 -3.71355,-0.12175 h -7.33576 v 11.11018 h 5.41812 q 3.40915,0 5.23548,-0.21307 1.85677,-0.24351 3.19608,-1.00448 1.33931,-0.76097 1.97853,-1.85677 0.66965,-1.0958 0.66965,-2.61775 z"
       id="path53"
       style="fill:#2202ff;fill-opacity:0.96470588" />
    <path
       d="m 270.40839,235.65721 h -5.66163 V 210.119 l -17.80674,25.53821 h -5.17461 V 201.657 h 5.66163 v 25.17294 L 265.05115,201.657 h 5.35724 z"
       id="path54"
       style="fill:#2202ff;fill-opacity:0.96470588" />
    <path
       d="m 329.03362,233.52649 q -3.50046,1.6437 -6.02689,2.25248 -2.49599,0.63921 -4.99197,0.63921 -3.71355,0 -6.81831,-1.06536 -3.10477,-1.0958 -5.3268,-3.28739 -2.22204,-2.1916 -3.47003,-5.53988 -1.21756,-3.34827 -1.21756,-7.82279 0,-8.12717 4.50495,-12.96695 4.50496,-4.87022 12.32775,-4.87022 2.95257,0 5.78338,0.82185 2.86125,0.82185 5.23548,2.00896 v 6.36172 h -0.33482 q -2.83082,-2.16115 -5.60075,-3.19608 -2.7395,-1.03492 -5.32681,-1.03492 -5.08329,0 -7.88366,3.40916 -2.76994,3.40915 -2.76994,9.46648 0,6.05734 2.76994,9.40561 2.76993,3.34828 7.88366,3.34828 1.7959,0 3.56135,-0.45659 1.79589,-0.45658 3.25696,-1.18711 1.15668,-0.57834 2.37423,-1.36975 1.248,-0.82185 1.73502,-1.21755 h 0.33482 z"
       id="path55"
       style="fill:#2202ff;fill-opacity:0.96470588" />
    <path
       d="m 433.49984,243.81483 h -5.3268 v -8.24894 h -25.56865 v 8.24894 h -5.3268 v -13.02784 h 3.6831 q 3.56135,-5.8747 5.29636,-13.54529 1.76546,-7.70104 1.76546,-15.5847 h 21.36808 v 29.12999 h 4.10925 z m -9.83175,-13.02784 v -24.32065 h -10.2579 q -0.39571,7.64015 -2.3438,13.941 -1.94808,6.30084 -4.47451,10.37965 z"
       id="path56"
       style="fill:#2202ff;fill-opacity:0.96470588" />
    <path
       d="m 490.72489,235.65721 h -5.72251 v -29.19087 h -12.693 q -0.0913,2.52642 -0.18264,4.87022 -0.0913,2.34379 -0.18263,4.231 -0.21307,5.08329 -0.7001,8.12718 -0.48702,3.01344 -1.27843,5.02241 -0.73053,1.88721 -1.6437,3.07433 -0.88272,1.15667 -1.91764,2.10028 -1.03493,0.91316 -2.31336,1.36975 -1.24799,0.45658 -2.7395,0.45658 -0.51746,0 -1.52194,-0.0304 -0.97404,-0.0304 -1.27843,-0.0304 v -4.99197 h 0.30439 q 0.24351,0 0.70009,0.0304 0.45658,0.0304 0.76097,0.0304 0.73053,0 1.49151,-0.21307 0.79141,-0.21307 1.33931,-0.79141 1.55238,-1.52194 2.49598,-5.14417 0.94361,-3.62222 1.248,-10.47097 0.12175,-2.49598 0.21307,-5.90514 0.12175,-3.43959 0.21307,-6.54435 h 23.40749 z"
       id="path57"
       style="fill:#2202ff;fill-opacity:0.96470588" />
    <path
       d="m 550.01981,235.65721 h -5.72251 v -13.48442 h -6.72699 l -10.53185,13.48442 h -6.72699 l 11.44502,-14.03232 q -4.41364,-1.21755 -6.45304,-3.71354 -2.03941,-2.52642 -2.03941,-6.60523 0,-2.70906 1.21756,-4.59627 1.21755,-1.88721 3.07432,-3.07433 1.82634,-1.15667 4.20057,-1.55238 2.37423,-0.42614 5.17461,-0.42614 h 13.08871 z m -5.72251,-17.98937 v -11.44501 h -7.21401 q -2.34379,0 -3.37871,0.15219 -1.03493,0.1522 -2.25248,0.82185 -1.18712,0.66966 -1.76545,1.82633 -0.5479,1.12624 -0.5479,2.46555 0,1.67414 0.33482,2.70906 0.36527,1.03492 1.46107,1.94809 1.12624,0.88273 2.7395,1.21755 1.61326,0.30439 3.59178,0.30439 z"
       id="path58"
       style="fill:#2202ff;fill-opacity:0.96470588" />
    <path
       d="m 655.49049,235.65721 h -5.7225 v -29.06912 h -17.01533 v 29.06912 h -5.72251 V 201.657 h 28.46034 z"
       id="path59"
       style="fill:#2202ff;fill-opacity:0.96470588" />
    <path
       d="m 717.64663,218.67232 q 0,8.30981 -4.26145,13.11916 -4.26144,4.80934 -11.41457,4.80934 -7.21401,0 -11.47545,-4.80934 -4.23101,-4.80935 -4.23101,-13.11916 0,-8.30981 4.23101,-13.11915 4.26144,-4.83978 11.47545,-4.83978 7.15313,0 11.41457,4.83978 4.26145,4.80934 4.26145,13.11915 z m -5.90514,0 q 0,-6.60523 -2.58731,-9.80131 -2.5873,-3.22652 -7.18357,-3.22652 -4.65715,0 -7.24445,3.22652 -2.55687,3.19608 -2.55687,9.80131 0,6.39217 2.58731,9.71 2.5873,3.2874 7.21401,3.2874 4.56583,0 7.15313,-3.25696 2.61775,-3.2874 2.61775,-9.74044 z"
       id="path60"
       style="fill:#2202ff;fill-opacity:0.96470588" />
    <path
       d="m 777.06332,235.65721 h -5.66163 V 210.119 l -17.80673,25.53821 h -5.17461 V 201.657 h 5.66163 v 25.17294 l 17.6241,-25.17294 h 5.35724 z"
       id="path61"
       style="fill:#2202ff;fill-opacity:0.96470588" />
    <path
       d="m 835.68853,233.52649 q -3.50047,1.6437 -6.02689,2.25248 -2.49599,0.63921 -4.99198,0.63921 -3.71354,0 -6.8183,-1.06536 -3.10477,-1.0958 -5.32681,-3.28739 -2.22203,-2.1916 -3.47003,-5.53988 -1.21755,-3.34827 -1.21755,-7.82279 0,-8.12717 4.50495,-12.96695 4.50495,-4.87022 12.32774,-4.87022 2.95257,0 5.78339,0.82185 2.86125,0.82185 5.23548,2.00896 v 6.36172 h -0.33483 q -2.83081,-2.16115 -5.60075,-3.19608 -2.73949,-1.03492 -5.3268,-1.03492 -5.08329,0 -7.88366,3.40916 -2.76994,3.40915 -2.76994,9.46648 0,6.05734 2.76994,9.40561 2.76993,3.34828 7.88366,3.34828 1.79589,0 3.56135,-0.45659 1.79589,-0.45658 3.25696,-1.18711 1.15667,-0.57834 2.37423,-1.36975 1.24799,-0.82185 1.73501,-1.21755 h 0.33483 z"
       id="path62"
       style="fill:#2202ff;fill-opacity:0.96470588" />
    <path
       d="m 896.14014,235.65721 h -7.48796 l -14.12363,-15.5847 h -3.10477 v 15.5847 h -5.7225 V 201.657 h 5.7225 v 14.67153 q 2.83082,0 4.56583,-1.00448 1.73502,-1.03492 2.95257,-3.2874 0.42615,-0.82185 0.82185,-1.73501 0.42615,-0.94361 0.82185,-1.7959 1.58282,-3.43959 3.95705,-5.14417 2.37424,-1.70457 6.81831,-1.70457 h 2.61774 v 4.93109 h -2.52642 q -2.40467,0 -3.77442,1.03493 -1.33931,1.00448 -2.43511,3.56134 -1.21756,2.86126 -2.58731,4.29188 -1.33931,1.40019 -2.86125,2.13072 z"
       id="path63"
       style="fill:#2202ff;fill-opacity:0.96470588" />
    <path
       d="m 950.68662,235.65721 h -5.69206 v -3.62222 q -0.76098,0.51746 -2.06985,1.46106 -1.27843,0.91317 -2.49598,1.46107 -1.43063,0.70009 -3.2874,1.15667 -1.85677,0.48703 -4.35276,0.48703 -4.59627,0 -7.79235,-3.04389 -3.19608,-3.04389 -3.19608,-7.76191 0,-3.86574 1.6437,-6.23997 1.67414,-2.40467 4.74846,-3.77442 3.10477,-1.36975 7.45752,-1.85677 4.35276,-0.48702 9.34474,-0.73053 v -0.88273 q 0,-1.94809 -0.7001,-3.22652 -0.66965,-1.27843 -1.94809,-2.00896 -1.21755,-0.7001 -2.92213,-0.94361 -1.70457,-0.24351 -3.56134,-0.24351 -2.25248,0 -5.02242,0.60878 -2.76993,0.57834 -5.7225,1.70457 h -0.30439 v -5.81382 q 1.67413,-0.45658 4.83978,-1.00448 3.16564,-0.5479 6.23996,-0.5479 3.59179,0 6.23997,0.60878 2.67862,0.57833 4.62671,2.00896 1.91765,1.40019 2.92213,3.62223 1.00448,2.22203 1.00448,5.50943 z m -5.69206,-8.37069 v -9.46648 q -2.61775,0.15219 -6.17909,0.45658 -3.53091,0.30439 -5.60076,0.88273 -2.46554,0.70009 -3.98749,2.19159 -1.52194,1.46107 -1.52194,4.04837 0,2.92213 1.76545,4.41364 1.76546,1.46106 5.38768,1.46106 3.01345,0 5.50944,-1.15667 2.49599,-1.18712 4.62671,-2.83082 z"
       id="path64"
       style="fill:#2202ff;fill-opacity:0.96470588" />
    <path
       d="m 1058.1358,235.65721 h -7.488 l -14.1236,-15.5847 h -3.1048 v 15.5847 h -5.7225 V 201.657 h 5.7225 v 14.67153 q 2.8309,0 4.5659,-1.00448 1.735,-1.03492 2.9525,-3.2874 0.4262,-0.82185 0.8219,-1.73501 0.4261,-0.94361 0.8218,-1.7959 1.5829,-3.43959 3.9571,-5.14417 2.3742,-1.70457 6.8183,-1.70457 h 2.6177 v 4.93109 h -2.5264 q -2.4046,0 -3.7744,1.03493 -1.3393,1.00448 -2.4351,3.56134 -1.2176,2.86126 -2.5873,4.29188 -1.3393,1.40019 -2.8613,2.13072 z"
       id="path65"
       style="fill:#2202ff;fill-opacity:0.96470588" />
    <path
       d="m 1113.6867,235.65721 h -5.7225 v -29.19087 h -12.693 q -0.091,2.52642 -0.1826,4.87022 -0.091,2.34379 -0.1827,4.231 -0.213,5.08329 -0.7001,8.12718 -0.487,3.01344 -1.2784,5.02241 -0.7305,1.88721 -1.6437,3.07433 -0.8827,1.15667 -1.9176,2.10028 -1.035,0.91316 -2.3134,1.36975 -1.248,0.45658 -2.7395,0.45658 -0.5175,0 -1.5219,-0.0304 -0.9741,-0.0304 -1.2785,-0.0304 v -4.99197 h 0.3044 q 0.2435,0 0.7001,0.0304 0.4566,0.0304 0.761,0.0304 0.7305,0 1.4915,-0.21307 0.7914,-0.21307 1.3393,-0.79141 1.5524,-1.52194 2.496,-5.14417 0.9436,-3.62222 1.248,-10.47097 0.1217,-2.49598 0.2131,-5.90514 0.1217,-3.43959 0.213,-6.54435 h 23.4075 z"
       id="path66"
       style="fill:#2202ff;fill-opacity:0.96470588" />
    <path
       d="m 1175.508,235.65721 h -5.6616 V 210.119 l -17.8067,25.53821 h -5.1746 V 201.657 h 5.6616 v 25.17294 l 17.6241,-25.17294 h 5.3572 z"
       id="path67"
       style="fill:#2202ff;fill-opacity:0.96470588" />
    <path
       d="m 1237.1468,219.25066 h -25.0512 q 0,3.13521 0.9436,5.479 0.9436,2.31335 2.5873,3.80486 1.5828,1.46106 3.744,2.19159 2.1916,0.73054 4.8093,0.73054 3.4701,0 6.9705,-1.36975 3.531,-1.40019 5.0225,-2.7395 h 0.3043 v 6.23997 q -2.8916,1.21755 -5.9051,2.0394 -3.0134,0.82185 -6.3313,0.82185 -8.462,0 -13.2104,-4.56583 -4.7485,-4.59627 -4.7485,-13.02783 0,-8.34025 4.5354,-13.24091 4.5658,-4.90066 11.9929,-4.90066 6.8792,0 10.5927,4.01793 3.744,4.01793 3.744,11.41458 z m -5.5703,-4.38319 q -0.03,-4.50496 -2.2829,-6.9705 -2.2221,-2.46555 -6.7879,-2.46555 -4.5963,0 -7.3358,2.70906 -2.709,2.70906 -3.0743,6.72699 z"
       id="path68"
       style="fill:#2202ff;fill-opacity:0.96470588" />
    <path
       d="m 1296.1982,235.65721 h -5.7225 v -15.31075 h -17.0153 v 15.31075 h -5.7225 V 201.657 h 5.7225 v 13.75837 h 17.0153 V 201.657 h 5.7225 z"
       id="path69"
       style="fill:#2202ff;fill-opacity:0.96470588" />
    <path
       d="m 1354.3668,206.67941 h -12.2973 v 28.9778 h -5.7225 v -28.9778 h -12.2973 V 201.657 h 30.3171 z"
       id="path70"
       style="fill:#2202ff;fill-opacity:0.96470588" />
    <path
       d="m 1411.1962,218.67232 q 0,8.30981 -4.2614,13.11916 -4.2614,4.80934 -11.4146,4.80934 -7.214,0 -11.4754,-4.80934 -4.231,-4.80935 -4.231,-13.11916 0,-8.30981 4.231,-13.11915 4.2614,-4.83978 11.4754,-4.83978 7.1532,0 11.4146,4.83978 4.2614,4.80934 4.2614,13.11915 z m -5.9051,0 q 0,-6.60523 -2.5873,-9.80131 -2.5873,-3.22652 -7.1836,-3.22652 -4.6571,0 -7.2444,3.22652 -2.5569,3.19608 -2.5569,9.80131 0,6.39217 2.5873,9.71 2.5873,3.2874 7.214,3.2874 4.5659,0 7.1532,-3.25696 2.6177,-3.2874 2.6177,-9.74044 z"
       id="path71"
       style="fill:#2202ff;fill-opacity:0.96470588" />
    <path
       d="m 1470.0345,225.36887 q 0,2.46555 -1.0044,4.3832 -0.9741,1.91765 -2.7091,3.19608 -1.9481,1.43063 -4.2614,2.06985 -2.283,0.63921 -6.0269,0.63921 h -14.0628 V 201.657 h 13.1496 q 3.8049,0 5.7225,0.27395 1.9481,0.24351 3.6527,1.12624 1.9176,1.00448 2.8003,2.61774 0.9132,1.61326 0.9132,3.80486 0,2.52642 -1.4306,4.38319 -1.4306,1.85677 -3.6831,2.8917 v 0.30438 q 3.0134,0.73054 4.9615,2.83082 1.9785,2.06984 1.9785,5.47899 z m -7.701,-15.00636 q 0,-1.0958 -0.487,-1.97852 -0.4566,-0.88273 -1.4306,-1.36975 -1.2785,-0.63922 -2.8917,-0.7001 -1.5828,-0.0913 -3.9266,-0.0913 h -5.9661 v 9.31429 h 7.1532 q 2.2525,0 3.3178,-0.15219 1.0958,-0.18264 2.1916,-0.85229 1.1567,-0.73053 1.5828,-1.70458 0.4566,-1.00448 0.4566,-2.46555 z m 1.7959,15.0368 q 0,-1.67413 -0.5479,-2.70906 -0.5479,-1.06536 -2.4047,-1.94808 -1.1566,-0.5479 -2.496,-0.63922 -1.3393,-0.12175 -3.7135,-0.12175 h -7.3358 v 11.11018 h 5.4182 q 3.4091,0 5.2354,-0.21307 1.8568,-0.24351 3.1961,-1.00448 1.3393,-0.76097 1.9786,-1.85677 0.6696,-1.0958 0.6696,-2.61775 z"
       id="path72"
       style="fill:#2202ff;fill-opacity:0.96470588" />
  </g>
</svg>
